<?xml version="1.0" encoding="UTF-8"?>
<svg width="40" height="40" viewBox="0 0 40 40" fill="none" xmlns="http://www.w3.org/2000/svg">
    <path d="M20 8C15.5817 8 12 11.5817 12 16C12 18.1217 12.8425 20.1566 14.3431 21.6569L20 27.3137L25.6569 21.6569C27.1575 20.1566 28 18.1217 28 16C28 11.5817 24.4183 8 20 8ZM20 10C23.3137 10 26 12.6863 26 16C26 17.5913 25.3679 19.1364 24.2426 20.2626L20 24.5052L15.7574 20.2626C14.6321 19.1364 14 17.5913 14 16C14 12.6863 16.6863 10 20 10Z" fill="#4A5568"/>
    <path d="M20 12.6863C17.2386 12.6863 15 14.9249 15 17.6863C15 18.7909 15.8954 19.6863 17 19.6863H23C24.1046 19.6863 25 18.7909 25 17.6863C25 14.9249 22.7614 12.6863 20 12.6863ZM20 14.6863C21.6569 14.6863 23 16.0294 23 17.6863H17C17 16.0294 18.3431 14.6863 20 14.6863Z" fill="#4A5568"/>
</svg> 