<svg width="400" height="400" viewBox="0 0 400 400" fill="none" xmlns="http://www.w3.org/2000/svg">
  <circle cx="200" cy="200" r="180" fill="url(#paint0_radial)" fill-opacity="0.1" />
  <circle cx="200" cy="200" r="150" stroke="url(#paint1_linear)" stroke-width="2" stroke-dasharray="8 8" />
  
  <!-- Dollar Symbol -->
  <path d="M200 100C194.477 100 190 104.477 190 110V120H170C164.477 120 160 124.477 160 130C160 135.523 164.477 140 170 140H190V260H170C164.477 260 160 264.477 160 270C160 275.523 164.477 280 170 280H190V290C190 295.523 194.477 300 200 300C205.523 300 210 295.523 210 290V280H230C235.523 280 240 275.523 240 270C240 264.477 235.523 260 230 260H210V140H230C235.523 140 240 135.523 240 130C240 124.477 235.523 120 230 120H210V110C210 104.477 205.523 100 200 100Z" fill="url(#paint2_linear)" />
  
  <!-- Building Icon -->
  <rect x="100" y="200" width="60" height="100" rx="4" stroke="url(#paint3_linear)" stroke-width="2" />
  <rect x="120" y="220" width="20" height="20" rx="2" stroke="url(#paint4_linear)" stroke-width="2" />
  <rect x="120" y="260" width="20" height="40" rx="2" stroke="url(#paint5_linear)" stroke-width="2" />
  
  <!-- Gold Bar -->
  <rect x="240" y="220" width="80" height="40" rx="4" stroke="url(#paint6_linear)" stroke-width="2" />
  <rect x="250" y="230" width="60" height="20" rx="2" fill="url(#paint7_linear)" fill-opacity="0.6" />
  
  <!-- Chain Links -->
  <path d="M180 180C180 191.046 171.046 200 160 200C148.954 200 140 191.046 140 180C140 168.954 148.954 160 160 160C171.046 160 180 168.954 180 180Z" stroke="url(#paint8_linear)" stroke-width="3" />
  <path d="M220 180C220 191.046 211.046 200 200 200C188.954 200 180 191.046 180 180C180 168.954 188.954 160 200 160C211.046 160 220 168.954 220 180Z" stroke="url(#paint9_linear)" stroke-width="3" />
  <path d="M260 180C260 191.046 251.046 200 240 200C228.954 200 220 191.046 220 180C220 168.954 228.954 160 240 160C251.046 160 260 168.954 260 180Z" stroke="url(#paint10_linear)" stroke-width="3" />
  
  <!-- Stars -->
  <path d="M100 100L103 106L110 103L103 110L110 117L103 114L100 120L97 114L90 117L97 110L90 103L97 106L100 100Z" fill="url(#paint11_linear)" />
  <path d="M300 100L303 106L310 103L303 110L310 117L303 114L300 120L297 114L290 117L297 110L290 103L297 106L300 100Z" fill="url(#paint12_linear)" />
  <path d="M200 40L203 46L210 43L203 50L210 57L203 54L200 60L197 54L190 57L197 50L190 43L197 46L200 40Z" fill="url(#paint13_linear)" />
  <path d="M300 300L303 306L310 303L303 310L310 317L303 314L300 320L297 314L290 317L297 310L290 303L297 306L300 300Z" fill="url(#paint14_linear)" />
  
  <!-- Connecting Lines -->
  <path d="M140 140L180 100" stroke="url(#paint15_linear)" stroke-width="1" stroke-dasharray="4 4" />
  <path d="M220 100L260 140" stroke="url(#paint16_linear)" stroke-width="1" stroke-dasharray="4 4" />
  <path d="M300 140L260 100" stroke="url(#paint17_linear)" stroke-width="1" stroke-dasharray="4 4" />
  <path d="M140 260L100 300" stroke="url(#paint18_linear)" stroke-width="1" stroke-dasharray="4 4" />
  <path d="M260 260L300 220" stroke="url(#paint19_linear)" stroke-width="1" stroke-dasharray="4 4" />
  
  <defs>
    <radialGradient id="paint0_radial" cx="0" cy="0" r="1" gradientUnits="userSpaceOnUse" gradientTransform="translate(200 200) rotate(90) scale(180)">
      <stop stop-color="#3B82F6" />
      <stop offset="1" stop-color="#1E3A8A" stop-opacity="0" />
    </radialGradient>
    <linearGradient id="paint1_linear" x1="50" y1="50" x2="350" y2="350" gradientUnits="userSpaceOnUse">
      <stop stop-color="#3B82F6" />
      <stop offset="1" stop-color="#6366F1" />
    </linearGradient>
    <linearGradient id="paint2_linear" x1="160" y1="100" x2="240" y2="300" gradientUnits="userSpaceOnUse">
      <stop stop-color="#3B82F6" />
      <stop offset="1" stop-color="#6366F1" />
    </linearGradient>
    <linearGradient id="paint3_linear" x1="100" y1="200" x2="160" y2="300" gradientUnits="userSpaceOnUse">
      <stop stop-color="#3B82F6" />
      <stop offset="1" stop-color="#6366F1" />
    </linearGradient>
    <linearGradient id="paint4_linear" x1="120" y1="220" x2="140" y2="240" gradientUnits="userSpaceOnUse">
      <stop stop-color="#3B82F6" />
      <stop offset="1" stop-color="#6366F1" />
    </linearGradient>
    <linearGradient id="paint5_linear" x1="120" y1="260" x2="140" y2="300" gradientUnits="userSpaceOnUse">
      <stop stop-color="#3B82F6" />
      <stop offset="1" stop-color="#6366F1" />
    </linearGradient>
    <linearGradient id="paint6_linear" x1="240" y1="220" x2="320" y2="260" gradientUnits="userSpaceOnUse">
      <stop stop-color="#F59E0B" />
      <stop offset="1" stop-color="#B45309" />
    </linearGradient>
    <linearGradient id="paint7_linear" x1="250" y1="230" x2="310" y2="250" gradientUnits="userSpaceOnUse">
      <stop stop-color="#FBBF24" />
      <stop offset="1" stop-color="#D97706" />
    </linearGradient>
    <linearGradient id="paint8_linear" x1="140" y1="160" x2="180" y2="200" gradientUnits="userSpaceOnUse">
      <stop stop-color="#3B82F6" />
      <stop offset="1" stop-color="#6366F1" />
    </linearGradient>
    <linearGradient id="paint9_linear" x1="180" y1="160" x2="220" y2="200" gradientUnits="userSpaceOnUse">
      <stop stop-color="#3B82F6" />
      <stop offset="1" stop-color="#6366F1" />
    </linearGradient>
    <linearGradient id="paint10_linear" x1="220" y1="160" x2="260" y2="200" gradientUnits="userSpaceOnUse">
      <stop stop-color="#3B82F6" />
      <stop offset="1" stop-color="#6366F1" />
    </linearGradient>
    <linearGradient id="paint11_linear" x1="90" y1="100" x2="110" y2="120" gradientUnits="userSpaceOnUse">
      <stop stop-color="#3B82F6" />
      <stop offset="1" stop-color="#6366F1" />
    </linearGradient>
    <linearGradient id="paint12_linear" x1="290" y1="100" x2="310" y2="120" gradientUnits="userSpaceOnUse">
      <stop stop-color="#3B82F6" />
      <stop offset="1" stop-color="#6366F1" />
    </linearGradient>
    <linearGradient id="paint13_linear" x1="190" y1="40" x2="210" y2="60" gradientUnits="userSpaceOnUse">
      <stop stop-color="#3B82F6" />
      <stop offset="1" stop-color="#6366F1" />
    </linearGradient>
    <linearGradient id="paint14_linear" x1="290" y1="300" x2="310" y2="320" gradientUnits="userSpaceOnUse">
      <stop stop-color="#3B82F6" />
      <stop offset="1" stop-color="#6366F1" />
    </linearGradient>
    <linearGradient id="paint15_linear" x1="140" y1="140" x2="180" y2="100" gradientUnits="userSpaceOnUse">
      <stop stop-color="#3B82F6" />
      <stop offset="1" stop-color="#6366F1" />
    </linearGradient>
    <linearGradient id="paint16_linear" x1="220" y1="100" x2="260" y2="140" gradientUnits="userSpaceOnUse">
      <stop stop-color="#3B82F6" />
      <stop offset="1" stop-color="#6366F1" />
    </linearGradient>
    <linearGradient id="paint17_linear" x1="300" y1="140" x2="260" y2="100" gradientUnits="userSpaceOnUse">
      <stop stop-color="#3B82F6" />
      <stop offset="1" stop-color="#6366F1" />
    </linearGradient>
    <linearGradient id="paint18_linear" x1="140" y1="260" x2="100" y2="300" gradientUnits="userSpaceOnUse">
      <stop stop-color="#3B82F6" />
      <stop offset="1" stop-color="#6366F1" />
    </linearGradient>
    <linearGradient id="paint19_linear" x1="260" y1="260" x2="300" y2="220" gradientUnits="userSpaceOnUse">
      <stop stop-color="#3B82F6" />
      <stop offset="1" stop-color="#6366F1" />
    </linearGradient>
  </defs>
</svg>
