<svg width="48" height="48" viewBox="0 0 48 48" fill="none" xmlns="http://www.w3.org/2000/svg">
  <rect width="48" height="48" rx="8" fill="url(#paint0_linear)" fill-opacity="0.1"/>
  <path d="M24 44C35.0457 44 44 35.0457 44 24C44 12.9543 35.0457 4 24 4C12.9543 4 4 12.9543 4 24C4 35.0457 12.9543 44 24 44Z" stroke="url(#paint1_linear)" stroke-width="2" stroke-linecap="round" stroke-linejoin="round"/>
  <path d="M13 24H35" stroke="url(#paint2_linear)" stroke-width="2" stroke-linecap="round" stroke-linejoin="round"/>
  <path d="M24 13V35" stroke="url(#paint3_linear)" stroke-width="2" stroke-linecap="round" stroke-linejoin="round"/>
  <path d="M24 8C27.3137 11.3137 29.3137 15.6863 30 20" stroke="url(#paint4_linear)" stroke-width="2" stroke-linecap="round" stroke-linejoin="round"/>
  <path d="M24 8C20.6863 11.3137 18.6863 15.6863 18 20" stroke="url(#paint5_linear)" stroke-width="2" stroke-linecap="round" stroke-linejoin="round"/>
  <path d="M24 40C27.3137 36.6863 29.3137 32.3137 30 28" stroke="url(#paint6_linear)" stroke-width="2" stroke-linecap="round" stroke-linejoin="round"/>
  <path d="M24 40C20.6863 36.6863 18.6863 32.3137 18 28" stroke="url(#paint7_linear)" stroke-width="2" stroke-linecap="round" stroke-linejoin="round"/>
  <path d="M8 24C11.3137 27.3137 15.6863 29.3137 20 30" stroke="url(#paint8_linear)" stroke-width="2" stroke-linecap="round" stroke-linejoin="round"/>
  <path d="M8 24C11.3137 20.6863 15.6863 18.6863 20 18" stroke="url(#paint9_linear)" stroke-width="2" stroke-linecap="round" stroke-linejoin="round"/>
  <path d="M40 24C36.6863 27.3137 32.3137 29.3137 28 30" stroke="url(#paint10_linear)" stroke-width="2" stroke-linecap="round" stroke-linejoin="round"/>
  <path d="M40 24C36.6863 20.6863 32.3137 18.6863 28 18" stroke="url(#paint11_linear)" stroke-width="2" stroke-linecap="round" stroke-linejoin="round"/>
  <defs>
    <linearGradient id="paint0_linear" x1="0" y1="0" x2="48" y2="48" gradientUnits="userSpaceOnUse">
      <stop stop-color="#3B82F6"/>
      <stop offset="1" stop-color="#6366F1"/>
    </linearGradient>
    <linearGradient id="paint1_linear" x1="4" y1="4" x2="44" y2="44" gradientUnits="userSpaceOnUse">
      <stop stop-color="#3B82F6"/>
      <stop offset="1" stop-color="#6366F1"/>
    </linearGradient>
    <linearGradient id="paint2_linear" x1="13" y1="24" x2="35" y2="24" gradientUnits="userSpaceOnUse">
      <stop stop-color="#3B82F6"/>
      <stop offset="1" stop-color="#6366F1"/>
    </linearGradient>
    <linearGradient id="paint3_linear" x1="24" y1="13" x2="24" y2="35" gradientUnits="userSpaceOnUse">
      <stop stop-color="#3B82F6"/>
      <stop offset="1" stop-color="#6366F1"/>
    </linearGradient>
    <linearGradient id="paint4_linear" x1="24" y1="8" x2="30" y2="20" gradientUnits="userSpaceOnUse">
      <stop stop-color="#3B82F6"/>
      <stop offset="1" stop-color="#6366F1"/>
    </linearGradient>
    <linearGradient id="paint5_linear" x1="24" y1="8" x2="18" y2="20" gradientUnits="userSpaceOnUse">
      <stop stop-color="#3B82F6"/>
      <stop offset="1" stop-color="#6366F1"/>
    </linearGradient>
    <linearGradient id="paint6_linear" x1="24" y1="40" x2="30" y2="28" gradientUnits="userSpaceOnUse">
      <stop stop-color="#3B82F6"/>
      <stop offset="1" stop-color="#6366F1"/>
    </linearGradient>
    <linearGradient id="paint7_linear" x1="24" y1="40" x2="18" y2="28" gradientUnits="userSpaceOnUse">
      <stop stop-color="#3B82F6"/>
      <stop offset="1" stop-color="#6366F1"/>
    </linearGradient>
    <linearGradient id="paint8_linear" x1="8" y1="24" x2="20" y2="30" gradientUnits="userSpaceOnUse">
      <stop stop-color="#3B82F6"/>
      <stop offset="1" stop-color="#6366F1"/>
    </linearGradient>
    <linearGradient id="paint9_linear" x1="8" y1="24" x2="20" y2="18" gradientUnits="userSpaceOnUse">
      <stop stop-color="#3B82F6"/>
      <stop offset="1" stop-color="#6366F1"/>
    </linearGradient>
    <linearGradient id="paint10_linear" x1="40" y1="24" x2="28" y2="30" gradientUnits="userSpaceOnUse">
      <stop stop-color="#3B82F6"/>
      <stop offset="1" stop-color="#6366F1"/>
    </linearGradient>
    <linearGradient id="paint11_linear" x1="40" y1="24" x2="28" y2="18" gradientUnits="userSpaceOnUse">
      <stop stop-color="#3B82F6"/>
      <stop offset="1" stop-color="#6366F1"/>
    </linearGradient>
  </defs>
</svg>
