<?xml version="1.0" encoding="UTF-8" standalone="no"?><svg xmlns="http://www.w3.org/2000/svg" width="740.54272" height="918.85162"><g font-family="DejaVu Sans, Helvetica, sans-serif" transform="translate(-5148.3106422 -8153.55522) scale(10.33256)"><path fill="#665440" d="M563.483 829.094c0-3.943 2.252-6.484 2.252-11.663 0-4.732-2.071-8.484-1.67-11.133.401-2.649 3.712-4.082 3.712-4.082l-6.123-7.053s-2.65 5.195-5.993 5.195c-2.779 0-4.967-2.879-7.817-3.307-3.815-.573-9.386 2.751-9.386 2.751s8.114-5.592 4.452-7.423c-2.968-1.484-7.051 7.161-7.051 7.161s1.861-9.943-1.49-9.943c-3.353 0-.737 9.798-.737 9.798s-4.265-8.501-7.237-6.831c-2.823 1.59 5.567 7.268 5.567 7.268s-7.297-3.306-10.631-3.163c-4.646.201-3.951 2.761-8.201 2.761-2.86 0-4.028-5.595-4.028-5.595l-9.704 8.748s4.431 1.884 5.205 4.271c1.566 4.823-2.331 6.691-2.331 10.393 0 6.31 2.97 8.947 2.97 12.246 0 3.46-6.497 6.124-6.497 6.124s7.193 2.007 7.193 5.012c0 4.267-3.479 5.905-3.479 10.577 0 5.752 3.896 5.379 3.188 9.647-.428 2.583-5.973 6.867-5.973 6.867l8.688 8.673s2.827-4.205 5.786-4.205c2.97 0 5.283 2.583 8.164 2.583 3.337 0 5.214-2.596 7.795-2.596 3.335 0 5.382 5.382 5.382 5.382s1.38-5.514 6.309-5.514c1.521 0 3.711 2.356 6.865 2.356 3.155 0 4.863-2.648 7.609-2.648 2.41 0 4.921 4.642 4.921 4.642l8.255-7.932s-5.383-2.226-5.383-5.009c0-3.104 1.856-4.454 1.856-10.577 0-7.237-2.15-8.051-2.15-13.102 0-2.261 5.104-4.143 5.104-4.143s-5.392-.815-5.392-6.536z"/><path fill="#ffeb8c" d="m560.964 803.779-53.062-1.225.82 66.283 52.242-.817z"/><path fill="#c7a941" d="m560.215 804.763-51.427-1.16.774 64.185 50.653-.771z"/><path fill="#824830" d="M560.215 832.603h-51.076l.423 35.185 50.653-.771z"/><path fill="#596b30" d="M509.139 832.603h51.076v-4.743s-2.369 3.197-4.058 3.197c-2.322 0-4.1-4.931-6.573-4.931-2.475 0-5.22 5.896-5.22 5.896l-19.143-.774s-3.673-9.278-5.8-9.278c-1.161 0-3.285 4.64-3.285 4.64s-3.094-8.121-4.642-8.121c-.854 0-1.802 2.128-2.479 4.032l.124 10.082z"/><path fill="#433225" d="M514.588 832.964s-4.903.22-4.903 1.765c0 1.546 5.969.82 5.969 2.37 0 1.545-4.435 1.4-4.424 2.754.024 2.682 10.247 1.062 10.247 1.062s-7.734-.676-7.734-1.642c0-.968 4.179-1.233 4.179-2.394 0-1.306-6.98-1.135-6.98-2.15-.002-1.114 3.646-1.765 3.646-1.765zm40.4.595s-2.554.113-2.554.918c0 .807 3.107.428 3.107 1.234 0 .804-2.309.729-2.302 1.432.012 1.395 5.333.553 5.333.553s-4.023-.351-4.023-.853c0-.505 2.174-.644 2.174-1.245 0-.68-3.634-.592-3.634-1.121.001-.576 1.899-.918 1.899-.918zm-33.61 10.657s6.644-2.708 2.466-9.945c-2.987-5.176 0-12.663 0-12.663s-.358-5.733 1.529-8.63c2.09-3.2 4.734-5.012 8.578-5.012 8.848 0 12.021 4.701 12.021 16.885 0 12.354 2.507 16.101 2.507 16.101l-27.101 3.264z"/><path fill="#f4d37e" d="M551.956 865.953v-4.893c7.623-4.737 1.306-12.882-1.368-16.177-5.006-6.175-13.522-7.414-13.522-13.256 0-5.343 4.453-9.187 1.671-16.146-1-2.497-7.516-4.592-7.516-4.592l-4.037 2.228c-1.529.974-2.202 9.183.418 12.944 2.133 3.062 4.038 3.248 4.038 3.248v5.239s-5.985 2.923-11.598 9.498c-4.994 5.854-7.204 18.979-7.453 22.861l39.367-.954z"/><path fill="#433225" d="M559.088 867.035c-.147-1.987-.645-8.715-2.26-13.557-2.028-6.089-4.85-9.744-10.717-14.476 0 0-5.01 7.794-15.03 7.794-4.355 0-7.375-4.87-5.708-8.629-.895.796-4.452 4.888-5.331 5.88-4.603 5.227-7.542 14.581-7.542 23.703l46.588-.715z"/><path fill="none" stroke="#000" stroke-width=".55669999" d="m520.96 844.801.011 14.108s4.774-1.277 10.053-.208c0 0-2.322 1.74-4.062 4.206-1.489 2.109-2.175 4.351-2.175 4.351m23.442-23.345s-.771 2.128-1.74 7.637c-.693 3.949-.822 8.618-.822 8.618"/><path fill="none" stroke="#000" stroke-linecap="round" stroke-width=".41339999" d="M529.758 824.797s.827.803 1.74.772c1.169-.033 1.781-.767 1.781-.767"/><path fill="none" stroke="#000" stroke-linecap="round" stroke-width=".28490001" d="M533.143 818.099c.518-.404 1.169-.635 1.831-.585.641.051 1.16.349 1.492.799"/><path fill="none" stroke="#000" stroke-width=".41819999" d="M552.774 863.827s-2.819-2.301-6.882-2.825c-3.221-.419-8.007-.282-11.053.347-3.652.75-4.834 1.935-4.834 1.935"/><path fill="none" stroke="#000" stroke-width=".55669999" d="M546.524 859.932s1.748-.375 3.566-.377c1.698-.007 3.409.446 3.409.446"/><path fill="#f5c14c" d="M538.129 861.963s-.743-2.492-3.701-2.827c-3.027-.343-8.312 4.907-6.274 6.235 3.551 2.324 9.975-3.408 9.975-3.408z"/><path fill="none" stroke="#000" stroke-linecap="round" stroke-width=".28999999" d="m534.315 862.97998-3.987 2.46399m1.37702-4.133-3.69702 2.758m5.50799-2.31995-4.711 3.33399"/><path fill="#f5df88" d="M529.853 860.634s.735-1.933 4.229-2.006c3.049-.062 8.69 5.125 6.653 6.454-3.551 2.321-10.882-4.448-10.882-4.448z"/><path fill="none" stroke="#000" stroke-linecap="round" stroke-width=".35049999" d="m534.57501 862.68903 3.98596 2.46698m-1.37695-4.133 3.69898 2.75397m-5.51001-2.32001 4.71099 3.33405"/><path fill="none" stroke="#8a4d4a" stroke-linecap="round" stroke-width=".35049999" d="m535.70502 865.10797 1.43896 1.97601"/><path fill="none" stroke="#000" stroke-linecap="round" stroke-width=".28490001" d="M527.114 818.174s1.322-.743 2.575-.381c1.533.442 1.347 1.725 1.347 2.516 0 1.343-1 2.713-1 2.713s.406.137 1.178.137c.771 0 1.169-.091 1.169-.091"/><path fill="none" stroke="#000" stroke-linecap="round" stroke-width=".55669999" d="M529.19 818.44202v.94897m5.74298-.94897v.94897"/><path fill="#433225" d="m547.735 841.183-8.164 4.27c5.429-5.891.695-8.954.695-8.954l5.149-3.759 2.32 8.443z"/><path fill="none" stroke="#000" stroke-linecap="round" stroke-width=".55669999" d="M548.479 840.952s-3.709.419-8.907 4.501c-5.81 4.566-8.907 11.133-8.907 11.133"/></g></svg>